<svg xmlns="http://www.w3.org/2000/svg" width="15.36" height="20"><defs><style>.a{fill:#fff}</style></defs><path class="a" d="M14.634 1.122h-2.2V.363a.363.363 0 1 0-.726 0v.759h-2.2V.363a.363.363 0 0 0-.726 0v.759H6.58V.363a.363.363 0 1 0-.726 0v.759h-2.2V.363a.363.363 0 1 0-.726 0v.759H.726A.727.727 0 0 0 0 1.848v17.426A.727.727 0 0 0 .726 20h13.908a.727.727 0 0 0 .726-.726V1.848a.727.727 0 0 0-.726-.726zM.726 19.274V1.848h2.2v.759a.363.363 0 0 0 .726 0v-.759h2.2v.759a.363.363 0 0 0 .726 0v-.759h2.2v.759a.363.363 0 1 0 .726 0v-.759h2.2v.759a.363.363 0 1 0 .726 0v-.759h2.2v17.426z"/><path class="a" d="M11.23 7.351h-7.1a.363.363 0 1 0 0 .726h7.1a.363.363 0 1 0 0-.726zm0 3.012h-7.1a.363.363 0 1 0 0 .726h7.1a.363.363 0 0 0 0-.726zm0 3.012h-7.1a.363.363 0 1 0 0 .726h7.1a.363.363 0 0 0 0-.726z"/></svg>