<svg xmlns="http://www.w3.org/2000/svg" width="20" height="12.308"><path d="M19.99 11.971a.371.371 0 0 0 .01-.048V.385a.426.426 0 0 0-.01-.049.361.361 0 0 0-.016-.078.386.386 0 0 0-.036-.07.451.451 0 0 0-.022-.044S19.9.136 19.9.131a.438.438 0 0 0-.062-.052.4.4 0 0 0-.057-.038.373.373 0 0 0-.067-.021.349.349 0 0 0-.078-.02H.364a.415.415 0 0 0-.078.02.373.373 0 0 0-.067.021.435.435 0 0 0-.057.038A.449.449 0 0 0 .1.131C.1.136.089.138.084.144a.3.3 0 0 0-.022.044.391.391 0 0 0-.037.07.358.358 0 0 0-.015.078.426.426 0 0 0-.01.049v11.538a.371.371 0 0 0 .01.048.337.337 0 0 0 .015.078.42.42 0 0 0 .036.07.478.478 0 0 0 .023.045c0 .005.011.007.016.012a.376.376 0 0 0 .091.072.4.4 0 0 0 .037.025.392.392 0 0 0 .157.035h19.23a.373.373 0 0 0 .157-.036.246.246 0 0 0 .034-.022.384.384 0 0 0 .095-.075c0-.005.01-.006.015-.011a.374.374 0 0 0 .022-.045.356.356 0 0 0 .036-.07.338.338 0 0 0 .016-.078zM.769 1.185L6.98 6.154.769 11.123zM10 7.584L1.481.769h17.038zm-2.4-.938l2.16 1.731a.381.381 0 0 0 .48 0l2.16-1.731 6.115 4.892H1.481zm5.424-.492l6.211-4.969v9.938z" fill="#fff"/></svg>