<svg id="icn" xmlns="http://www.w3.org/2000/svg" width="22" height="22"><defs><style>.cls-1{fill:#fff}</style></defs><path class="cls-1" d="M6.79 13.59A6.79 6.79 0 1 1 13 9.64a.44.44 0 0 1-.57.21.42.42 0 0 1-.2-.56A6 6 0 1 0 11 11a.42.42 0 0 1 .6 0 .44.44 0 0 1 0 .6 6.82 6.82 0 0 1-4.81 1.99z"/><path class="cls-1" d="M19.82 22a2.17 2.17 0 0 1-1.54-.64l-4.7-4.7a.42.42 0 0 1 0-.6.43.43 0 0 1 .6 0l4.7 4.7a1.35 1.35 0 0 0 1.88 0 1.33 1.33 0 0 0 0-1.88l-4.7-4.7a1.35 1.35 0 0 0-1.88 0 .46.46 0 0 1-.6 0L11 11.6a.42.42 0 0 1 .6-.6l2.31 2.31a2.13 2.13 0 0 1 1.21-.37 2.17 2.17 0 0 1 1.54.64l4.7 4.7A2.18 2.18 0 0 1 19.82 22z"/></svg>