<svg xmlns="http://www.w3.org/2000/svg" viewBox="0 0 586.842 82.591"><defs><style>.a{stroke:#000;stroke-miterlimit:10;stroke-width:.599px}.b{fill:#0f6d43}</style></defs><path class="a" d="M126.583 20.2a1.987 1.987 0 0 0-.666.055c-.267.055-.707.478-.7.767 0 .119-.04 1.426.16 1.428.126 0 .143.567.246.65a1.534 1.534 0 0 0 .316.159c.494.239.667.786.987 1.189a4.521 4.521 0 0 0 1.485 1.1l1.045.534a.906.906 0 0 0 1.416-.64c.123-1.017-1.607-2.31-2.178-3.05-.307-.4-.248-.939-.652-1.28-.165-.14-.4-.191-.572-.346-.377-.33-.57-.517-.887-.566zm-20.413.768c-.8.523-.257 2.165.036 2.779a12.277 12.277 0 0 1 1.026 4.523c.028.558-.856.752-1.183 1.093a1.007 1.007 0 0 1-.47.357c-.21.043-.425-.08-.638-.05-.344.05-.588.315-.951.358a5.349 5.349 0 0 1-1.769-.2 2.033 2.033 0 0 0-2.316.538c-1.169 1.389.156 2.679 1.477 3.207 1.519.608 3.713-.538 5.066-1.228a.989.989 0 0 0 .278-.184c.18-.186.158-.579.471-.614.265-.03.513.34.6.545a4.925 4.925 0 0 1 .225 1.237c.046.33.092.66.121.991.155 1.762-.218 3.494-.059 5.267a3.9 3.9 0 0 1-.185 1.622 2.79 2.79 0 0 0 0 .785 4.422 4.422 0 0 1-.71 2.072c-.346.684-.413 1.548-.815 2.181-.252.4-.78.5-.979.967-.079.187-.269 1.5.134 1.5a3.533 3.533 0 0 0 1.727 1.559 1.128 1.128 0 0 0 1.076-.167c.053-.047.073-.164 0-.158 1.25.182 1.538-2.394 1.662-3.175.073-.46.02-1.792.54-1.906a.932.932 0 0 0 .443-.227c.789-.989 2.656-1.616 3.84-1.887a8.919 8.919 0 0 1 4.564.14 2.888 2.888 0 0 1 1.017.489 2.918 2.918 0 0 1 .833 1.442 3.412 3.412 0 0 1-1.185 3.446 3.259 3.259 0 0 1-.643.243 3.353 3.353 0 0 1-.726.147 1.438 1.438 0 0 1-1.26-.525c-.452-.628-.157-1.539-.473-2.246-.123-.276-.435-.531-.707-.4-.668.328-.163 2.888-.108 3.5.085.95.8 1.251 1.668 1.379a6.9 6.9 0 0 0 2.2.1 3.928 3.928 0 0 0 2.594-1.66c.192-.3.336-.628.507-.94a4.663 4.663 0 0 0 .081-4.246 5.358 5.358 0 0 0-.95-1.463 5.281 5.281 0 0 0-1.985-1.415 7.258 7.258 0 0 0-4-.122 15.878 15.878 0 0 0-3.7.923c-.562.269-1.937 1.735-2.61 1.241-.269-.2-.347-.6-.14-.73.329-.206.043-1.185.016-1.491a36.559 36.559 0 0 1-.066-5.664 11.058 11.058 0 0 0 .075-1.992c-.117-1.062-.8-2.684.071-3.62.141-.151.323-.258.468-.405a5.573 5.573 0 0 0 .642-1.176c.2-.325.791-.77.572-1.2-.129-.254-.54-.348-.63-.006-.156.591-1.119.285-1.308.712-.457 1.032-.849-1.239-.882-1.434a20.984 20.984 0 0 0-.945-3.451 3.165 3.165 0 0 0-.452-.933c-.231-.296-.805-.674-1.185-.428zm169.978 7.619a8.122 8.122 0 0 0-2.809.791 9.778 9.778 0 0 0-1.454.977 6.3 6.3 0 0 0-2.377 2.744 23.119 23.119 0 0 0-1.472 4.4c-.237 1.775.483 3.336.5 5.051a7.9 7.9 0 0 0 .036 1.46c.288 1.443 2.585 2.071 3.812 1.656a7 7 0 0 0 2.262-1.737c.815-.732 1.8-1.233 2.638-1.946 1.386-1.181 2.518-2.7 3.944-3.793.537-.412 2.435-1.92 2.235-2.706a.414.414 0 0 1-.014-.233c.834.22 1.223 1.533 1.605 2.192A7.152 7.152 0 0 1 285 43.55c-1.036 2.174-3.416 3.94-4.145 6.216-.343 1.073 1.28-.365 1.362-.472a2.172 2.172 0 0 1 .72-.626c.624-.234 1.008-1.4 1.426-1.915 1.26-1.554 2.51-2.8 3.055-4.787a9.179 9.179 0 0 0-.328-5.87 17.605 17.605 0 0 0-3.653-5.045c-.658-.7-1.981-.846-2.836-1.293a7.847 7.847 0 0 0-4.453-1.171zm.335 2.517a10.334 10.334 0 0 1 3 .807 1.74 1.74 0 0 1 .6.373c.976 1.047-.01 2.469-.256 3.517a4.329 4.329 0 0 1-1.405 2.56 21.89 21.89 0 0 1-2.3 2.116 5.883 5.883 0 0 1-2.04.715c-1.207.318-1.965 1.082-3.272.44-.9-.441-.924-1.508-.934-2.384a11.282 11.282 0 0 1 .521-3.095 7.675 7.675 0 0 1 2.094-4.05 5.284 5.284 0 0 1 3.992-1.003zM169.145 18.276c-1.882-.034-1.657 1.655-2.486 2.777-.435.587 2.305 1.63 2.151 2.226-.027.108-.007.221.048.255.5.325-.015 4.625-.367 5.144a.542.542 0 0 0-.1.593 3.871 3.871 0 0 1 .162.679c.148 1.056 1.108 1.169 1.552.183 1.265-2.808.681-6.425.644-9.407-.008-.866-.508-2.419-1.604-2.45zm-17.559 3.132c-.209-.006-.443.178-.82.714a6.115 6.115 0 0 0-.85 1.485 2.075 2.075 0 0 0 .064 1.666 1.271 1.271 0 0 0 1.445.637c-.871.3.143 2.722.01 3.374-.166.81-.418 1.052-1.231 1.233a15.56 15.56 0 0 1-1.705-.089 18.855 18.855 0 0 1-2.1.285c-.887-.032-2.248-.028-2.585 1.086-.672 2.221 2.163 4.412 2.491 1.228.049-.475 3.734-.663 4.146-.48 1.7.756 1.405 3.146 1.2 4.632-.312 2.307-.522 3.917-2.552 5.345a19.891 19.891 0 0 1-3.515 2.127c-1.025.441-2.227.794-2.748 1.781a2.3 2.3 0 0 0 1.526 3.1 2.457 2.457 0 0 0 2.972-2.966 1.559 1.559 0 0 1-.089-.589 1.148 1.148 0 0 1 .429-.631 15.18 15.18 0 0 1 3.176-2.219 8.646 8.646 0 0 0 2.057-1.259c.893-.852 1.331-2.2 2.442-2.738a3.292 3.292 0 0 0 .68-.345c.517-.422.164-.739-.293-.789-.28-.03-1.1.683-1.348.829-.193.115-.622.489-.85.489-.045 0-.106-.177-.14-.4s-.09-.558-.129-.754a1.175 1.175 0 0 1 0-.531c.479-1.208-.206-2.631.211-3.84.371-1.075 1.813-1.312 2.767-1.719a1.5 1.5 0 0 0 .589-.369c.875-1.04-2.872-1.11-3.307-1.785-.529-.82-.217-2.851.019-3.745a7.365 7.365 0 0 0-.028-3.25.923.923 0 0 0-.208-.471 1.5 1.5 0 0 0-.469-.247c-.659-.312-.928-.787-1.257-.795zm17.501 10.045a13.092 13.092 0 0 0-3.04.312 13.778 13.778 0 0 1-4.405.7 8.327 8.327 0 0 0-2.1-.261c-.672.116-1.048.774-1.635.825-.345.425.371.982.33 1.528a3.42 3.42 0 0 0-.072.444.715.715 0 0 0 .222.425 2.222 2.222 0 0 0 2.338.5c.753-.292 1.04-1.073 1.835-1.32a6.333 6.333 0 0 1 3.243.171 6.149 6.149 0 0 0 1.291.062 20.849 20.849 0 0 1-4.488 8.947 35.526 35.526 0 0 1-5.552 5.682c-.76.621-1.635 1.428-1.447 2.392a71.855 71.855 0 0 0 11.255-10.315c1.239-1.405 2.069-1.269 3.631-.7.864.312 1.909-.154 2.081.953a6.531 6.531 0 0 1-.446 3.029c-.577 1.27-1.092 2.593-1.786 3.805-.607 1.062-1.421 2.351-2.741 1.538a11.648 11.648 0 0 1-2.077-1.631.285.285 0 0 0-.154-.1c-.155-.018-.216.2-.2.354a3.535 3.535 0 0 0 1.279 2.03 5.934 5.934 0 0 1 1.576 1.853c.418.982 1.234 1.134 2.219.605a4.851 4.851 0 0 0 1.849-2.643 93.028 93.028 0 0 1 2.525-5.554c.568-1.159 2.176-3.15 1.771-4.435-.281-.889.584-1.453-.5-2.1-.355-.213-.758-.335-1.107-.557-1.072-.682-1.79-.77-2.655-1.788-.711-.837-.448-1.725.7-1.863 1.484-.179 2.968-.354 4.455-.5 2.306-.221 5.713.276 7.808-.581.215-.087 1.425.392 1.425.076a.218.218 0 0 1 .135-.2c.1-.036.1-.1.018-.253-.3-.518-1.955-.5-2.459-.616-3.031-.718-6.163-.362-9.243-.435-2.031-.039-3.93-.368-5.879-.379zm68.339-9.296a.534.534 0 0 0-.095.041c-.711.4-.845 1.608-1.075 2.316q-.531 1.629-1.024 3.272-.987 3.282-1.828 6.608c-.4 1.565-.768 3.137-1.126 4.711-.331 1.459-.65 2.92-.968 4.38l-1.039 4.759a9.442 9.442 0 0 0-.332 2.63 2.3 2.3 0 0 0 .4 1.319c.488.587.743.267 1.339.028 1-.4.736-1.841.869-2.708q.238-1.551.488-3.1c.328-2.028.678-4.053 1.073-6.069q.7-3.554 1.579-7.066c.2-.8.411-1.605.637-2.4q.619-2.172 1.41-4.29a13.257 13.257 0 0 1 .88-1.541c.241-.423.828-.6.966-1.071a.862.862 0 0 0-.353-.893 1.875 1.875 0 0 0-.959-.313c-.235-.025-.152-.834-.842-.613zm-27.795.184a1.213 1.213 0 0 0-.852.651 2.922 2.922 0 0 0-.184 1.242c0 1.222.444 3.429-.323 4.488a4.244 4.244 0 0 1-2.972 1.083c-.828-.037-1.648-.245-2.476-.206-1.134.054-2.266.57-3.37.3a7.749 7.749 0 0 0-1.123-.3c-.856-.073-1.145.676-.973 1.388.391 1.615 2.444.928 3.652.932 1.45.006 2.848.29 4.282.376.685.041 2.089-.42 2.572.076 1 1.025.755 2.311 1.348 3.654a18 18 0 0 0 2.913 4.573c.5.577 1.555 1.284 2.295.614 1.181-1.069-1.628-3.633-2.046-4.488a19.3 19.3 0 0 1-.967-3.542c-.058-.229-.218-.647-.111-.883.4-.892 2.012-1.283 2.828-1.491.917-.234 4.558-1.046 4.761-2.152.143-.782-6.829-.1-7.621.291a3.783 3.783 0 0 1-.405-1.8 13.427 13.427 0 0 1-.094-2.606 5.205 5.205 0 0 0 .19-1.169 1.059 1.059 0 0 0-.565-.969 1.29 1.29 0 0 0-.759-.062zm-2.399 22.287a1.358 1.358 0 0 0-.261 1.189 5.158 5.158 0 0 0 1.542 2.383c.9.947 2.857 3.507 4.3 3.507a.961.961 0 0 0 .606-.129 2.371 2.371 0 0 0-.184-1.455c-.218-.635-1.1-1.674-1.349-1.58-.075.029-.154-.061-.193-.22-.082-.339-1.411-1.445-1.7-1.88a9.219 9.219 0 0 0-1.142-1.5 1.331 1.331 0 0 0-1.41-.469.759.759 0 0 0-.209.154zm50.102 4.105c-.078-.2-.467-.151-.7.1a.707.707 0 0 0-.048.068 2.406 2.406 0 0 0-.94.348 13.665 13.665 0 0 1-6.858 2.319 10.844 10.844 0 0 1-3.115-.486 7.553 7.553 0 0 1-3-1.518 5.479 5.479 0 0 1-2.08-2.792c-.391-1.347-2.13-2.062-2.134-3.531a.761.761 0 0 0-.806-.643.873.873 0 0 0-.351.19c-.052.043-.1.089-.15.136-1.115 1.1-.452 1.68.025 2.819a5.273 5.273 0 0 0 .561 1.441 9.266 9.266 0 0 1 1 1.154 18.227 18.227 0 0 1 .678 1.808 6.3 6.3 0 0 0 2.1 2.654 6.667 6.667 0 0 0 3.3.854l3.2.251c.135.01.27.021.405.018a9.426 9.426 0 0 0 3.336-1.2c1.484-.724 2.641-1.85 4.048-2.665.336-.194.969-.227 1.078-.68.237-.178.505-.505.451-.645z"/><path class="b" d="M467.926 15.338a1.881 1.881 0 0 0-1.333.664c-.478.505-1.5.586-1.4 1.474a1.824 1.824 0 0 0 .413.875 5.657 5.657 0 0 0 2.527 1.876c1.179.436 2.075.276 2.971 1.278a4.993 4.993 0 0 0 1.791 1.384c.973.39 2.187.342 1.7-1.109a2.99 2.99 0 0 0-.666-.977 17.625 17.625 0 0 1-1.905-2.525c-.349-.581-.577-1.362-1.2-1.7-.963-.53-1.942-1.271-2.898-1.24zm-3.007 33.837a7.145 7.145 0 0 0-3.544-6.08 6.142 6.142 0 0 0-3.124-.673c-.663.033-2.316.831-2.648-.083a4.164 4.164 0 0 1 0-1.566c.023-.512.274-1.4-.06-1.814-.348.244-.353.756-.412 1.145a7.475 7.475 0 0 1-.492 1.6c-.622 1.591-1.892 2.017-3.327 2.742-.539.272-1.549.914-2.184.759-1.2-.292-.676-3.11-.7-3.983q-.049-1.889-.208-3.772c-.058-.684-.181-1.361-.2-2.048a11.987 11.987 0 0 0-.074-2.564 3.637 3.637 0 0 1-.165-2.481 9.151 9.151 0 0 1 1-1.3.6.6 0 0 1 .128-.151 1.241 1.241 0 0 1 .177-.093 1.056 1.056 0 0 0 .427-.559c.324-.762.873-2.714-.4-2.971-.539-.108-1.305 1-1.6.039-.209-.676.111-1.4.089-2.105-.024-.756-.521-1.173-.791-1.82-.258-.619-.624-1.207-1.371-.591a1.8 1.8 0 0 0-.482.7c-.446 1.062-.119 2.2-.053 3.305.029.472.187 3.02-.731 2.933-.432-.04-.857.108-1.284.076-.739-.055-1.225-.4-2.015-.29-1.253.181-3.372.561-2.975 2.3.034.148.1.285.152.429a12.464 12.464 0 0 0 .29 1.434c.585 1.234 2.161 1.367 3.36 1.391a3.91 3.91 0 0 0 1.243-.122c.424-.134.734-.51 1.182-.562.748-.085.9.832.859 1.385-.084 1.064.124 2.148.1 3.219-.035 1.547-.309 3.073-.488 4.606-.175 1.491-.088 3.018-.894 4.352-.693 1.149-1.595 2.178-1.656 3.579-.047 1.094.232 2.122.176 3.205a1.99 1.99 0 0 0 .629 1.544 2.613 2.613 0 0 0 2.709.3c.79-.38.91-1.508 1.461-2.145.239-.277.516-.522.744-.809a4.85 4.85 0 0 0 .533-1.268 3.325 3.325 0 0 1 1.191-1.329c.748-.528 4.674-3.356 4.841-1a11.144 11.144 0 0 0 1.945 5.451 3.427 3.427 0 0 0 1.472 1.211 13.2 13.2 0 0 0 3.056.335c.983.136 2.364-1.318 2.9-2a5.92 5.92 0 0 0 1.214-3.861zm-2.85.427c0 .064 0 .128-.009.191-.082 1.178-.418 2.671-1.9 2.215-.739-.228-1.546-.076-2.254-.32-1.14-.393-1.3-1.981-1.7-2.948a4.7 4.7 0 0 1-.273-2.068c.071-.614.022-.542.569-.672a6.72 6.72 0 0 1 4.013.333 3.788 3.788 0 0 1 1.554 3.267z"/><path class="a" d="M306.515 32.742c-.267-.045-.539.046-.85.485a2.265 2.265 0 0 0-.3 1.557c.058.538.211 1.062.263 1.6a20.752 20.752 0 0 0 .174 2.96 22.466 22.466 0 0 0 1.049 2.944 7.836 7.836 0 0 0 3.19 4.366.676.676 0 0 0 .385.139.723.723 0 0 0 .309-.118c1.485-.852.741-1.966.14-3.3-.534-1.187-.985-2.409-1.433-3.63a25.682 25.682 0 0 1-1.248-3.266 12.072 12.072 0 0 1 .116-2.592c0-.312-.327-.732-.571-.733-.47-.004-.839-.347-1.224-.412zm23.553 1.145a1.13 1.13 0 0 0-.3.148c-.695.482-.5 1.328-.168 1.977a7.963 7.963 0 0 1 .43 1.479 15.086 15.086 0 0 1 .641 2.171 7.807 7.807 0 0 1-1.2 5.343 25.319 25.319 0 0 0-2.059 3.126c-.161.346-.154 1.135.388.7a8.141 8.141 0 0 0 1.813-1.675c1.678-2.617 3.8-5.51 3.691-8.734-.027-.82.25-1.273-.333-1.939a5.165 5.165 0 0 1-.569-.957 5.649 5.649 0 0 0-.981-1.326 1.376 1.376 0 0 0-1.353-.313zm62.763-1.093a1.388 1.388 0 0 0-1.054 1.072 6.517 6.517 0 0 1-.15.785c-.1.252-.421.421-.385.728.087.745.914 1.612 1.26 2.271a11.418 11.418 0 0 1 1.232 3.412 2.257 2.257 0 0 0 2.59 1.474c1.7-.437-.941-4.568-.876-5.412.091-1.19.277-2.809-.839-3.551q-.459-.3-.927-.594a1.218 1.218 0 0 0-.851-.185zm25.818 4.649a1.069 1.069 0 0 0-.565.2 1.952 1.952 0 0 0-.753 1.3 7.331 7.331 0 0 0 .812 3.482c.218.533 1.684 3.231 2.217 1.38a5.927 5.927 0 0 0 .111-.7 11.034 11.034 0 0 0-.2-4.509 2 2 0 0 0-1.622-1.153zm-60.46-14.378a3.616 3.616 0 0 0-.237.686l-.538 2.019a6.622 6.622 0 0 1-1.548 3.244 6.611 6.611 0 0 1-2.708 1.3 12.631 12.631 0 0 1-3.324.683c-.841.02-3.768-.317-3.618 1.242a2.079 2.079 0 0 0 1.861 1.752 7.067 7.067 0 0 0 1.951-.451c.592-.129 1.206-.114 1.8-.236.561-.116.991-.61 1.544-.647 1.426-.1-.116 2.22-.377 2.716-.44.835-.917 1.653-1.344 2.5a13.861 13.861 0 0 1-2.033 3.246c-.836.905-1.907 1.683-2.288 2.854-.293.9.51 2.285 1.351 1.182a69.19 69.19 0 0 0 4.814-6.871c.5-.858 1-1.722 1.421-2.626a8.55 8.55 0 0 1 .97-2.285 5.031 5.031 0 0 0 .572-.616 1.924 1.924 0 0 1 1.1-1.014 4.416 4.416 0 0 0 1.616-1.116 1.594 1.594 0 0 1 .383-.351c.606-.336 1.595-1.264.932-2.064-.388-.466-1.543.32-1.686-.285-.173-.731.791-1.6.86-2.349.072-.767.416-2.629-.721-2.942-.367-.108-.599.123-.753.429zm12.782 9.818c-.8.124-1.469.681-1.153 1.648a14.326 14.326 0 0 0 1.026 2.074c.34.647 1.124.572 1.708.95.512.332.88.849 1.381 1.2a11.957 11.957 0 0 1 1.332.883c.411.373.694.728 1.343.569 2.566-.628-.829-3.345-1.462-4a19.867 19.867 0 0 1-1.368-1.774 4.216 4.216 0 0 0-1.69-1.433 2.177 2.177 0 0 0-1.117-.117zm-7.035 6.261a1.065 1.065 0 0 0-.222.351 7.206 7.206 0 0 0-.733 1.838c-.118.777-.019 1.629-.085 2.419a24.476 24.476 0 0 1-.426 2.953c-.136.658-.42 1.265-.605 1.908-.118.412-.128 1.032-.592 1.223-.553.228-.945.625-1.588.56-.611-.063-1.487-.808-2.035-.328a3.536 3.536 0 0 0-.891 1.207.569.569 0 0 0-.039.519 7.269 7.269 0 0 0 .658 1.244c.33.354.854.454 1.185.813a3.814 3.814 0 0 1 .506.971c.74 1.518 2.385.375 3.088-.493a30.289 30.289 0 0 0 1.962-2.474c.324-.5.079-.921.043-1.44a4.358 4.358 0 0 1 .484-1.77 10.265 10.265 0 0 0 .231-3.575c-.006-1.221.544-2.337.544-3.529v-1.179c0-.567-.7-1.679-1.407-1.278a.419.419 0 0 0-.078.06z"/><path class="b" d="M533.966 9.748c-.046.041-.82.017-.966.049-.411.09-.826.222-1.241.317q-1.429.325-2.872.6-2.884.549-5.8.886a9.731 9.731 0 0 0-1.468.339 7.51 7.51 0 0 1-.908.206 1.038 1.038 0 0 0-.11.027 2.049 2.049 0 0 1-.636.177c-1.282-.03-.173-3.567.019-4.2a2.5 2.5 0 0 0 .176-1.243 1.826 1.826 0 0 0-.331-.664 1.818 1.818 0 0 0-.611-.576 1.189 1.189 0 0 0-1.351.267 4.7 4.7 0 0 0-.9 1.365c-.094.408.2.705.343 1.053a3.747 3.747 0 0 1 .229 1.156c.07.745.336 2.181-.2 2.837-.754.928-2.744 1.266-3.858 1.538-.9.22-5.914 1.494-5.7-.39a11.594 11.594 0 0 0-.378-2.78 23.435 23.435 0 0 1-.287-2.532c-.028-.666.045-1.378.714-1.688.8-.374 2.126-2.327 1.435-3.2a4.736 4.736 0 0 0-3.04-1.527 1.643 1.643 0 0 0-1.121.145 1.614 1.614 0 0 0-.74.884 5.286 5.286 0 0 0-.134 2.068c.063 1.384.129 2.768.254 4.148.081.894.153 1.8.3 2.689a5.094 5.094 0 0 1 .171 2.126 2.605 2.605 0 0 1-.834 1.254 5.5 5.5 0 0 1-2.135 1.227c-3.485.816-6.881 1.915-10.412 2.582a1.065 1.065 0 0 1-.432 0c-.74-.163-.962-.389-1.592.255a2.4 2.4 0 0 0-.913 1.671 3.35 3.35 0 0 0 .917 2.6 5.214 5.214 0 0 0 1.987 1.008c.953.236 1.4-.194 2.08-.838a1.7 1.7 0 0 0 .519-.725.657.657 0 0 0-.288-.776.363.363 0 0 1-.158-.093c-1-1.351 2.35-2.082 3.073-2.331a30.444 30.444 0 0 1 4.556-1.347c.948-.168 3.447-.622 3.887.626.243.692-.13 1.533.029 2.286a4.67 4.67 0 0 1 .216 1.247 11.627 11.627 0 0 0-.212 1.192c.013.344.3.69-.042.973a1.151 1.151 0 0 1-.638.2 2.932 2.932 0 0 0-1.035.2 5.068 5.068 0 0 0-2.272 2.459c-.3 1 .967 1.188 1.047 2.084.158 1.785-2.435 2.146-3.741 2.451a5.924 5.924 0 0 1-1.343.107 5.891 5.891 0 0 0-1.451.115c-1.752.359-.819 3.3.142 4a10.777 10.777 0 0 0 1.259.787.644.644 0 0 0 .309.1.808.808 0 0 0 .306-.1c.561-.263.872-.011 1.379.258.376.2.753.4 1.109.634a7.329 7.329 0 0 0 .912.572c.514.239 1.164.112 1.631.458 1.394 1.032-4.275 6.526-5.151 7.37a7.758 7.758 0 0 0-.627.977c-.271.348-1.117.7-.741 1.266.461.691 1.783.349 2.258-.129A3.26 3.26 0 0 0 498.9 48c.358-.505.658-1.1 1.041-1.58s.9-.842 1.313-1.3q1.357-1.537 2.632-3.146a77.608 77.608 0 0 0 4.75-6.686c.31-.489.615-.981.9-1.482.663-1.142 1.87-2.353 2.224-3.622a1.338 1.338 0 0 0-.6-1.649 4.139 4.139 0 0 0-1.086-.29 2.2 2.2 0 0 1-1.036-.415c-.059-.05-.118-.131-.08-.2a.177.177 0 0 1 .1-.07 9.95 9.95 0 0 1 3.107-1.024c1.543-.4 3.546-1.01 5.131-.709a1.912 1.912 0 0 0 .9.066 2.835 2.835 0 0 0 .562-.316c.448-.253 1.072-.058 1.572-.273 1.681-.722.2-2.873-1.249-2.606a3.663 3.663 0 0 0-1.835.567c-.113.1-.473.485-.623.458-.182-.033-.15-.3-.074-.471a29.86 29.86 0 0 0 1.675-4.63c.331-1.225.283-3.363 1.352-4.206a6.57 6.57 0 0 1 2.473-.8 44.353 44.353 0 0 1 6.512-1.27 24.6 24.6 0 0 1 3.379-.125c1.071.038 2.882.5 3.732-.411.819-.886-.963-2.727-1.706-2.062zm-26.75 22.944l-.122.225-.513.95a8.619 8.619 0 0 0-.388.775c-.141.334-.241.685-.381 1.02-.291.69-1.1 2.748-2.168 2.2-.415-.213-.569-.744-.953-1.01a3.5 3.5 0 0 0-.44-.224c-.642-.322-.856-1.095-1.484-1.409-.526-.264-.571-.381-.294-.755a2.36 2.36 0 0 0 .341-.746 5.911 5.911 0 0 1 .857-1.589.934.934 0 0 1 .261-.232 18.629 18.629 0 0 1 1.749-1.209 2.329 2.329 0 0 1 1.685-.08 13.088 13.088 0 0 0 1.566.656c.251.035.649-.095.858.1.329.294-.427 1.056-.574 1.328zm9.6-15.729a5.119 5.119 0 0 1-.232.793 7.542 7.542 0 0 0-.632 2.572 12.591 12.591 0 0 1-.475 2.2 1.84 1.84 0 0 0-.119.618c0 .43.129.528.551.408a.209.209 0 0 1 0 .24.5.5 0 0 1-.309.13l-1.5.251a1.18 1.18 0 0 0-.779.341.49.49 0 0 1-.457.176 4.68 4.68 0 0 0-2.257.3 3.634 3.634 0 0 1-1.7-.06.676.676 0 0 1-.588-.643 22.109 22.109 0 0 0-.1-3.7 4.887 4.887 0 0 1-.156-2.313c.293-1 1.13-.941 1.862-1.443a3.288 3.288 0 0 1 .983-.624c.458-.135.934-.192 1.392-.321l2.462-.7a4.238 4.238 0 0 1 1.924-.162.479.479 0 0 1 .317.269 2.759 2.759 0 0 1-.189 1.668z"/><path class="b" d="M515.778 27.934a1.325 1.325 0 0 0-1.218 1.112 8.707 8.707 0 0 0-.055 1.221c-.036.718-.269 1.414-.32 2.132-.113 1.6.71 2.836 1.106 4.318a2.428 2.428 0 0 0 2.461 1.519 1.867 1.867 0 0 1 .547-.1c.774.077 2.181.418 1 1.178l-2.835 1.829a7.026 7.026 0 0 0-1.252.912 6.99 6.99 0 0 1-1.24 1.173c-.271.164-1.052.492-.65.891-.024-.025 3.415-2.009 3.67-2.149l4.208-2.32a6.277 6.277 0 0 1 2.135-.854c.415-.055.837-.027 1.253-.081a1.657 1.657 0 0 0 .958-2.715c-1.19-1.171-2.687-.6-4.126-.368-1.123.18-3.721.468-3.494-1.4a.529.529 0 0 1 .1-.279.651.651 0 0 1 .263-.16c.8-.33 1.5-.854 2.265-1.257.964-.509 4.62-.3 3.539-2.284a6.008 6.008 0 0 0-.567-.861 1.356 1.356 0 0 0-.426-.394c-.709-.361-1.189.7-1.871.719-1.228.039-2.417.358-3.645.5a.848.848 0 0 1-.362-.011c-.386-.128-.231-.67-.3-.963-.155-.696-.58-1.295-1.144-1.308z"/><path class="b" d="M518.158 41.905a3.354 3.354 0 0 0-.9 1.9c-.1.452.246.847.16 1.3-.217 1.154-1.229 1.65-2.242 1.935a35.668 35.668 0 0 0-3.805 1.362 6.513 6.513 0 0 1-2.244.632c-.335.008-1.384-.048-1.525-.436-.119-.328.265-.629.387-.891a3.67 3.67 0 0 0 0-3.787c-.462-.688-1.194-.819-1.7-1.406a1.474 1.474 0 0 0-1.6-.479c-.7.206-.781 1.685-.9 2.307a3.7 3.7 0 0 0-.074 1.192c.062.394.308.736.348 1.136a3.477 3.477 0 0 1-.042.667c-.08.9.342 1.455-.415 2.176-1.683 1.6-4.227 1.684-6.415 1.753a4.917 4.917 0 0 1-1.508-.108c-.47-.135-.944-.334-1.3.145a1.323 1.323 0 0 0-.225.8 1.639 1.639 0 0 0 .356 1.049 1.6 1.6 0 0 0 1.42.412c1.12-.067 2.24-.133 3.354-.26 1.042-.118 2.069-.426 3.106-.52a4.224 4.224 0 0 1 2.266.056c.931.518.308 2.119.362 2.955.021.333.135.671.133 1a6.079 6.079 0 0 1-.294 1.256 2.968 2.968 0 0 0 .17 1.646 3.468 3.468 0 0 0 1.2 1.928.751.751 0 0 0 .508.116c1.458-.282 1.705-3.163 1.324-4.232a5.919 5.919 0 0 1-.223-.627 3.693 3.693 0 0 1-.054-.8c-.013-1.172-.139-2.338-.259-3.5-.1-1 1.325-1.473 2.1-1.895a19.425 19.425 0 0 1 3.255-1.335 22.041 22.041 0 0 1 2.741-.619c.326-.063.629-.223.956-.287.617-.119.63.012.591.614a40.085 40.085 0 0 0-.019 4.013c.053 1.579.14 3.157.121 4.737-.03 2.4-.3 4.806-.385 7.21l-.258 7.626a26.424 26.424 0 0 1-.726 3.517c-.263 1.5-.419 3.015-.6 4.526a3.162 3.162 0 0 0-.019.941 1.1 1.1 0 0 0 1.284.945 2.41 2.41 0 0 0 1.8-2.152 39.66 39.66 0 0 0 .47-4.634c.277-3.47.29-6.93.358-10.408.019-.953.266-1.882.27-2.83.009-1.914-.09-3.833.038-5.745a47.125 47.125 0 0 0 .054-6.152 5.222 5.222 0 0 1 .042-1.569 4.123 4.123 0 0 1 .288-1.169c.186-.288.713-.416 1.006-.587.41-.241.8-.516 1.2-.778a7.353 7.353 0 0 1 1.519-.876c.613-.217 1.278-.237 1.9-.432a4.408 4.408 0 0 1 .725-.209 5.778 5.778 0 0 0 .711-.062c.894-.236.764-1.456.392-2.072-.784-1.3-2.235 0-3.18.492a17.265 17.265 0 0 1-1.914 1.059 2.96 2.96 0 0 1-1.873-.115c-.281-.141-.349-.2-.319-.5.023-.227.244-.259.192-.558-.047-.271-.338-.484-.5-.682-.361-.413-.989-1.13-1.589-.691zm37.857-32.577l-.029.025c-1.572 1.362.708 2.592 1.423 3.523a8.611 8.611 0 0 1 1.062 3.008l1.8 6.629c.234.862.5 2.109-.121 2.879a2.551 2.551 0 0 1-1.476.71q-5.678 1.32-11.357 2.636a3.451 3.451 0 0 0-2.023.982 1.7 1.7 0 0 0 2.172 2.542c.454-.256.7-.7 1.1-1a4.591 4.591 0 0 1 1.763-.705l5.4-1.316c1.5-.366 3.669-1.349 5.217-.872a1.453 1.453 0 0 1 1.066 1.71c-.709 1.974-3.155 3.375-4.886 4.344a26.09 26.09 0 0 1-6.053 2.538 7.307 7.307 0 0 0-2.14.82 2.587 2.587 0 0 0-1.177 2.568c.105 1.035.319 2.421 1.494 2.745a4.536 4.536 0 0 0 1.761.05 3.937 3.937 0 0 0 2.089-1.034c.368-.326.3-.371.75-.4.114-.008 1.281.325 1.312.169a7.2 7.2 0 0 1-2.4 3.515l-2.084 2.018a3.924 3.924 0 0 0-.892 1.1 2.156 2.156 0 0 0 .792 2.617 2.455 2.455 0 0 0 2.786-.175c.578-.459.935-1.145 1.49-1.631 1.306-1.142 3.266-.9 4.976-1.193.849-.146 1.829-.642 1.839-1.5a2.138 2.138 0 0 0-.335-1l-1.9-3.562a3.043 3.043 0 0 0-.4 2.166 1.251 1.251 0 0 1 .017.783c-.428.873-3.985 1.718-2.9.057l2.246-3.446a5.485 5.485 0 0 0 1.083-2.924 1.759 1.759 0 0 0-.588-1.336c-.567-.5-1.346-.035-1.792-.411-.778-.655 3.492-3.52 3.935-3.862.488-.378.789-.844 1.436-1 .771-.188 1.172 1.706 1.31 2.171a26.4 26.4 0 0 0 1.477 3.62 114.258 114.258 0 0 0 5.483 10.341c1.559 2.609 3.221 5.154 4.883 7.7l2.327 3.562c.584.893 1.167 1.787 1.79 2.653q.787 1.1 1.655 2.13a4.2 4.2 0 0 0 1.414 1.224c.908.405 3.255-.5 2.948-1.734a4.248 4.248 0 0 0-.338-.74 3.992 3.992 0 0 1-.187-1.886c.022-.815.227-1.513.293-2.308a1.218 1.218 0 0 0-.268-1.017c-.408.27-.826.437-.978.958a5.49 5.49 0 0 0-.115 1.127c-.025.32-.619 1.618-1.041.934-.113-.183-.116-.42-.24-.6a1.423 1.423 0 0 0-.566-.368 3.761 3.761 0 0 1-.968-.822 21.581 21.581 0 0 1-2.992-3.519 34.329 34.329 0 0 0-2.228-2.823c-1.459-1.919-2.508-4.1-3.832-6.11a19.748 19.748 0 0 1-1.9-3.3c-.9-2.144-1.942-4.22-2.94-6.317-.5-1.048-.987-2.1-1.439-3.169-.288-.682-1.251-2.234-.993-2.977a3.531 3.531 0 0 1 1.852-1.763c1.033-.433 2.155.041 3.219-.182a2.406 2.406 0 0 0 .6-4.5c-.93-.475-1.36-1.121-2.5-.969a14.355 14.355 0 0 0-2.116.488 6.739 6.739 0 0 1-2.054.608c-.9-.128-1.171-1.517-1.376-2.217-.939-3.213-2.154-6.415-2.552-9.752a6.465 6.465 0 0 0-.427-1.994 2.885 2.885 0 0 0-1.54-1.444 2.142 2.142 0 0 0-2.117.228zm26.868 2.349a.746.746 0 0 0-.088.028 2.027 2.027 0 0 0-1.455 1.372 2.738 2.738 0 0 0 .485 2.462 6.961 6.961 0 0 1 2.079 2.538c.664 1.427.61 3.194 2.217 3.969a.292.292 0 0 0 .187.04.283.283 0 0 0 .152-.128c.744-1.055.146-2.585.285-3.773.1-.832-.28-1.116-.639-1.807-.33-.634-.555-1.328-.837-1.984-.354-.824-1.136-3.026-2.386-2.717zm2.56 43.537a3.439 3.439 0 0 1-.186.754c-.221.633-.146 1.107.174 1.107.156 0 .255-.121.3-.377a3.846 3.846 0 0 0 0-1.5c-.1-.263-.29-.255-.29.013zM19.223 9.594a7.178 7.178 0 0 0 13.505.041l2.238-5.663-5.319-2.964a7.178 7.178 0 0 0-10.424 8.586zM10.5 16.243A5.025 5.025 0 0 0 3.237 22.3l1.348 4.044 4.186-.8a5.025 5.025 0 0 0 1.726-9.3zM6.706 48.266a5.742 5.742 0 0 0 1.909-10.634l-4.151-2.55-3.074 3.779a5.742 5.742 0 0 0 5.316 9.405zm25.127 19.958a5.024 5.024 0 0 0 8.873 3.261l2.828-3.19-2.789-3.223a5.024 5.024 0 0 0-8.912 3.152zm30.149-11.789A5.742 5.742 0 0 0 51.819 60.1l-.133 4.869 4.809.773a5.741 5.741 0 0 0 5.487-9.306zm-38.203 8.114a7.178 7.178 0 0 0-6.717-11.716l-6.023.893.092 6.089a7.178 7.178 0 0 0 12.648 4.734zm43.033-15.731a7.178 7.178 0 0 1-4.2-12.837l4.7-3.872 4.457 4.148a7.177 7.177 0 0 1-4.96 12.561zm-3.963-33.773a5.024 5.024 0 0 0 1.614 9.315l4.176.854 1.4-4.027a5.024 5.024 0 0 0-7.186-6.142zm-7.178-5.368a5.742 5.742 0 0 1-10.622-1.972l-.919-4.784 4.622-1.541a5.742 5.742 0 0 1 6.919 8.3z"/></svg>