<svg xmlns="http://www.w3.org/2000/svg" width="36.578" height="24"><defs><style>.a{fill:#9f8623}</style></defs><path class="a" d="M0 0v3.742a21.564 21.564 0 0 1 7.868 1.47q.649.258 1.26.551a19.844 19.844 0 0 1 2.978-1.141 21.875 21.875 0 0 1 6.183-.88 21.587 21.587 0 0 1 7.9 1.47q.649.258 1.26.551a19.844 19.844 0 0 1 2.978-1.141 21.871 21.871 0 0 1 6.149-.88V0zm22.9 14.19a4.52 4.52 0 0 0 .775 2.541A4.547 4.547 0 0 0 32 14.19a3.886 3.886 0 0 0-.292-1.43 6.324 6.324 0 0 0-.905-1.542 11.521 11.521 0 0 0-3.353-2.793 12.388 12.388 0 0 0-2.751 2.1 6.836 6.836 0 0 0-1.566 2.4 3.809 3.809 0 0 0-.233 1.265z"/><path class="a" d="M31.9 8.894a9.173 9.173 0 0 1 2.09 3.248 6.16 6.16 0 0 1 .364 2.048 6.9 6.9 0 1 1-13.809 0 6.541 6.541 0 0 1 .792-3.027 10.3 10.3 0 0 1 2.085-2.688 14.418 14.418 0 0 1 1.5-1.223 18.808 18.808 0 0 0-1.112-.369 19.565 19.565 0 0 0-5.521-.783 19.273 19.273 0 0 0-6.63 1.151 13.946 13.946 0 0 1 1.92 1.643 9.183 9.183 0 0 1 2.089 3.248 6.136 6.136 0 0 1 .365 2.048 6.905 6.905 0 1 1-13.81 0 6.552 6.552 0 0 1 .791-3.027A10.325 10.325 0 0 1 5.1 8.475a14.418 14.418 0 0 1 1.5-1.223 24.347 24.347 0 0 0-1.117-.369A19.55 19.55 0 0 0 0 6.1V24h36.578V6.1a19.307 19.307 0 0 0-6.6 1.151A13.878 13.878 0 0 1 31.9 8.894z"/><path class="a" d="M4.581 14.19a4.513 4.513 0 0 0 .776 2.541 4.546 4.546 0 0 0 8.318-2.541 3.906 3.906 0 0 0-.292-1.43 6.324 6.324 0 0 0-.9-1.542 11.521 11.521 0 0 0-3.356-2.793 12.388 12.388 0 0 0-2.751 2.1 6.832 6.832 0 0 0-1.565 2.4 3.786 3.786 0 0 0-.23 1.265z"/></svg>