<svg xmlns="http://www.w3.org/2000/svg" viewBox="0 0 21.56 26.552"><path d="M18 26.021a4.8 4.8 0 0 1-.706-.178A24.41 24.41 0 0 1 5.268 16.99 24.84 24.84 0 0 1 .5 2.8a2.469 2.469 0 0 1 .411-1.63h0a1.112 1.112 0 0 1 .8-.432L5.4.5a1.617 1.617 0 0 1 1.588 1.464A21.4 21.4 0 0 0 7.673 5.5a1.585 1.585 0 0 1-.837 1.954l-.927.36a.764.764 0 0 0-.424.411c-.278.648 1.5 3.885 3.209 6.239 1.427 1.958 4.084 4.869 4.848 4.8a.767.767 0 0 0 .526-.28l.627-.772a1.587 1.587 0 0 1 2.116-.2c.643.451 1.706 1.076 2.56 1.579 1.162.685 1.278.761 1.375.893a1.463 1.463 0 0 1 .225 1.395l-1.355 3.434a1.133 1.133 0 0 1-.659.63 1.822 1.822 0 0 1-.957.078z" fill="none" stroke="#fff" stroke-miterlimit="10" data-name="Layer 2"/></svg>